<svg width="1018" height="192" viewBox="0 0 1018 192" fill="none" xmlns="http://www.w3.org/2000/svg">
<rect y="95" width="840" height="27" fill="#BFAAAA"/>
<g filter="url(#filter0_d_1_46)">
<path d="M98.4238 44.08C102.157 45.1467 105.41 47.0133 108.184 49.68C112.237 52.6667 115.17 56.1867 116.984 60.24C118.797 64.2933 119.704 68.6133 119.704 73.2C119.704 74.0533 119.65 74.8533 119.544 75.6C119.544 76.24 119.49 76.9867 119.384 77.84C116.61 78.5867 113.73 79.0133 110.744 79.12C107.864 79.12 104.877 79.12 101.784 79.12C100.184 79.12 98.6371 79.0667 97.1438 78.96C95.7571 78.7467 94.6371 78.32 93.7838 77.68C94.2104 77.2533 94.4238 76.6667 94.4238 75.92C94.4238 73.1467 93.3038 70.96 91.0638 69.36C88.8238 67.76 86.4771 66.96 84.0238 66.96C83.1704 66.96 82.2104 67.0133 81.1438 67.12C80.0771 67.2267 79.3304 67.4933 78.9038 67.92L79.5438 68.24C77.3038 68.56 75.7571 69.4667 74.9038 70.96C74.0504 72.4533 73.6238 74.1067 73.6238 75.92C73.6238 78.8 74.4238 80.88 76.0238 82.16C77.7304 83.44 79.7038 84.3467 81.9438 84.88C84.1838 85.4133 86.4771 85.84 88.8238 86.16C91.2771 86.3733 93.2504 86.9067 94.7438 87.76C97.9438 89.68 100.93 91.5467 103.704 93.36C106.584 95.0667 109.09 97.0933 111.224 99.44C113.357 101.787 115.01 104.667 116.184 108.08C117.464 111.493 118.104 115.76 118.104 120.88C118.104 127.28 116.77 133.093 114.104 138.32C111.544 143.547 107.544 147.44 102.104 150C102.637 149.253 103.33 148.667 104.184 148.24C105.037 147.707 105.73 147.013 106.264 146.16H104.504C103.864 146.587 103.224 147.013 102.584 147.44C101.944 147.76 101.357 148.027 100.824 148.24L97.4638 149.68C95.3304 150.64 93.1438 151.92 90.9038 153.52H90.2638C89.6238 153.52 88.8771 153.627 88.0238 153.84C87.2771 153.947 86.5838 154 85.9438 154C85.4104 154 85.0904 153.947 84.9838 153.84C84.6638 153.947 84.0238 154 83.0638 154H81.3038C77.6771 154 74.3704 153.787 71.3838 153.36C68.3971 152.827 65.1438 152.133 61.6238 151.28C60.2371 150.853 59.0104 150.16 57.9438 149.2C56.9838 148.24 56.0771 147.173 55.2238 146C54.4771 144.827 53.6771 143.653 52.8238 142.48C52.0771 141.2 51.2771 140.08 50.4238 139.12C48.7171 136.347 47.4904 133.36 46.7438 130.16C46.1038 126.96 45.6771 123.653 45.4638 120.24L46.4238 119.44C48.7704 119.653 51.0638 119.813 53.3038 119.92C55.6504 120.027 57.9438 120.08 60.1838 120.08C61.6771 120.08 63.1704 120.027 64.6638 119.92C66.2638 119.813 67.8104 119.653 69.3038 119.44C70.0504 119.653 70.5838 120.027 70.9038 120.56C71.2238 121.093 71.4371 121.733 71.5438 122.48C71.7571 123.12 71.9171 123.76 72.0238 124.4C72.2371 125.04 72.6104 125.573 73.1438 126C75.3838 129.2 78.3171 130.8 81.9438 130.8C85.1438 130.8 87.7571 129.787 89.7838 127.76C91.8104 125.627 92.8238 122.853 92.8238 119.44C92.8238 118.48 92.5038 117.52 91.8638 116.56C90.4771 114.107 88.6638 112.293 86.4238 111.12C84.2904 109.84 81.9971 108.88 79.5438 108.24C77.0904 107.6 74.5304 107.067 71.8638 106.64C69.3038 106.213 66.9038 105.573 64.6638 104.72C61.8904 103.653 59.4371 102.213 57.3038 100.4C55.2771 98.48 53.5704 96.3467 52.1838 94C50.7971 91.5467 49.7838 88.9867 49.1438 86.32C48.5038 83.5467 48.1838 80.72 48.1838 77.84C48.1838 73.36 48.7171 69.1467 49.7838 65.2C50.9571 61.1467 52.8771 57.4133 55.5438 54C59.2771 50.3733 64.0238 47.5467 69.7838 45.52C75.5438 43.3867 81.2504 42.32 86.9038 42.32C90.8504 42.32 94.6904 42.9067 98.4238 44.08ZM112.984 76.56C113.09 76.4533 113.25 76.4 113.464 76.4L115.064 75.6C114.957 74.4267 114.904 73.3067 114.904 72.24C115.01 71.0667 114.957 69.7333 114.744 68.24C114.21 65.04 112.984 62.2667 111.064 59.92C109.144 57.4667 106.904 55.3867 104.344 53.68C101.784 51.9733 99.0104 50.5333 96.0238 49.36C93.0371 48.1867 90.1571 47.1733 87.3838 46.32C86.5304 46.1067 85.9438 46 85.6238 46H83.8638C80.5571 46 77.1438 46.48 73.6238 47.44C70.1038 48.4 67.5438 49.68 65.9438 51.28C64.7704 51.28 63.8104 51.76 63.0638 52.72C62.3171 53.5733 61.7304 54 61.3038 54C61.0904 54 60.9838 53.8933 60.9838 53.68C60.9838 53.2533 61.4104 52.88 62.2638 52.56C63.2238 52.1333 64.0238 51.4933 64.6638 50.64C63.8104 50.8533 62.9038 51.3333 61.9438 52.08C61.0904 52.8267 60.2904 53.6267 59.5438 54.48C58.7971 55.3333 58.1571 56.1867 57.6238 57.04C57.1971 57.7867 56.9838 58.32 56.9838 58.64C56.9838 58.32 57.3038 57.84 57.9438 57.2C58.6904 56.56 59.3304 56.08 59.8638 55.76L60.1838 56.72C57.7304 58.96 56.0238 61.5733 55.0638 64.56C54.1038 67.44 53.2504 69.8933 52.5038 71.92C51.8638 73.7333 51.4904 75.0133 51.3838 75.76C51.2771 76.5067 51.2238 77.9467 51.2238 80.08C51.2238 83.4933 52.0771 86.7467 53.7838 89.84C55.4904 92.9333 57.8371 95.7067 60.8238 98.16C60.8238 98.6933 61.0371 99.2267 61.4638 99.76C61.9971 100.293 62.5304 100.667 63.0638 100.88C65.9438 101.733 68.8771 102.48 71.8638 103.12C74.8504 103.653 77.7304 104.4 80.5038 105.36C83.3838 106.32 86.0504 107.6 88.5038 109.2C90.9571 110.693 93.0371 112.827 94.7438 115.6C95.3838 116.88 95.7038 118.213 95.7038 119.6C95.7038 121.2 95.3304 122.8 94.5838 124.4C93.8371 125.893 92.8238 127.28 91.5438 128.56C90.2638 129.733 88.7704 130.693 87.0638 131.44C85.3571 132.187 83.5438 132.56 81.6238 132.56C79.7038 132.56 78.1038 132.293 76.8238 131.76C75.5438 131.227 74.4238 130.533 73.4638 129.68C72.6104 128.72 71.8638 127.707 71.2238 126.64C70.5838 125.573 69.9438 124.56 69.3038 123.6C68.0238 123.173 66.3704 122.96 64.3438 122.96C62.2104 122.96 60.1304 123.12 58.1038 123.44C56.1838 123.76 54.2104 123.92 52.1838 123.92H50.7438C50.1038 123.92 49.6771 123.867 49.4638 123.76C49.5704 124.613 49.7304 125.68 49.9438 126.96C50.1571 128.24 50.3704 129.467 50.5838 130.64C50.9038 131.813 51.2238 132.827 51.5438 133.68C51.8638 134.533 52.1304 134.96 52.3438 134.96C52.9838 136.88 54.0504 138.747 55.5438 140.56C57.0371 142.267 58.7438 143.813 60.6638 145.2C62.5838 146.48 64.5571 147.547 66.5838 148.4C68.7171 149.253 70.6904 149.68 72.5038 149.68C73.2504 149.68 73.8371 149.467 74.2638 149.04C74.5838 149.36 75.1171 149.52 75.8638 149.52H76.6638C77.6238 149.52 78.6371 149.733 79.7038 150.16C80.7704 150.48 81.9438 150.64 83.2238 150.64C89.1971 150.64 94.5304 148.933 99.2238 145.52C103.917 142.107 107.97 138.107 111.384 133.52C112.344 131.387 113.09 129.093 113.624 126.64C114.264 124.08 114.584 121.467 114.584 118.8C114.584 114.533 113.944 111.013 112.664 108.24C111.49 105.467 109.837 103.12 107.704 101.2C105.677 99.28 103.277 97.68 100.504 96.4C97.7304 95.12 94.8504 93.84 91.8638 92.56L76.3438 86C74.3171 85.04 73.0371 83.5467 72.5038 81.52C71.9704 79.4933 71.7038 77.5733 71.7038 75.76C71.7038 74.3733 71.8638 72.9333 72.1838 71.44C72.5038 69.84 73.0371 68.4533 73.7838 67.28C74.6371 66 75.7571 64.9867 77.1438 64.24C78.5304 63.3867 80.2904 62.96 82.4238 62.96C84.4504 62.96 86.2638 63.3867 87.8638 64.24C89.5704 64.9867 91.0638 66 92.3438 67.28C93.6238 68.4533 94.6904 69.84 95.5438 71.44C96.3971 73.04 97.0371 74.64 97.4638 76.24C98.8504 76.56 100.504 76.72 102.424 76.72C103.597 76.72 104.824 76.6133 106.104 76.4C107.384 76.08 108.557 75.92 109.624 75.92C110.157 75.92 110.69 76.0267 111.224 76.24C111.757 76.4533 112.29 76.56 112.824 76.56H112.984ZM235.951 153.04C235.951 153.147 236.058 153.253 236.271 153.36L234.831 153.84H234.511L234.671 153.52C231.685 153.52 228.751 153.627 225.871 153.84C223.098 154.053 220.165 154.16 217.071 154.16H214.351C212.858 154.16 211.365 154 209.871 153.68C208.485 153.36 207.791 152.613 207.791 151.44C207.791 151.013 207.898 150.8 208.111 150.8L208.751 151.12L209.071 150.8C208.538 149.947 208.005 149.093 207.471 148.24C206.938 147.28 206.405 146.267 205.871 145.2L202.511 138.96C201.338 136.827 200.271 134.747 199.311 132.72C198.458 130.587 197.658 128.56 196.911 126.64L187.151 112.72V120.4C187.151 125.52 187.205 130.64 187.311 135.76C187.418 140.773 187.738 145.573 188.271 150.16L187.951 150.32L189.551 151.76C188.805 151.76 188.431 152.027 188.431 152.56C188.431 153.093 188.218 153.52 187.791 153.84C187.578 153.627 187.365 153.52 187.151 153.52C186.938 153.52 186.778 153.573 186.671 153.68C186.671 153.787 186.565 153.84 186.351 153.84C186.245 153.84 186.031 153.68 185.711 153.36C183.578 153.467 181.498 153.627 179.471 153.84C177.551 153.947 175.525 154 173.391 154H171.471C171.258 154 170.778 154 170.031 154C169.285 153.893 168.325 153.787 167.151 153.68H165.551C165.125 153.68 164.751 153.627 164.431 153.52C164.111 153.413 163.791 153.36 163.471 153.36C163.045 153.36 162.831 153.467 162.831 153.68V153.84L162.671 153.68C162.565 153.573 162.511 153.467 162.511 153.36L162.191 154C161.978 153.893 161.871 153.787 161.871 153.68C161.871 153.467 161.765 153.307 161.551 153.2L160.911 153.68C160.698 152.827 160.591 152.4 160.591 152.4C160.805 151.013 160.965 149.893 161.071 149.04C161.285 148.08 161.391 147.333 161.391 146.8C161.391 145.627 161.285 144.613 161.071 143.76C160.858 142.8 160.751 141.733 160.751 140.56L160.911 140.72C161.018 140.72 161.071 140.827 161.071 141.04C161.285 140.827 161.391 140.507 161.391 140.08V134.8C161.391 131.813 161.445 129.04 161.551 126.48C161.658 123.813 161.711 121.307 161.711 118.96C161.711 115.867 161.605 112.08 161.391 107.6C161.285 103.12 161.125 98.3733 160.911 93.36C160.805 88.3467 160.698 83.2267 160.591 78C160.485 72.7733 160.431 67.8133 160.431 63.12C160.431 60.56 160.431 57.5733 160.431 54.16C160.431 50.7467 160.485 46.8533 160.591 42.48L162.511 40.24L163.311 41.68C163.525 41.7867 164.005 41.84 164.751 41.84H166.031C168.058 41.84 169.978 41.68 171.791 41.36C173.711 41.04 175.738 40.72 177.871 40.4L177.551 40.72C179.471 41.04 181.498 41.2 183.631 41.2C185.551 41.2 187.471 41.1467 189.391 41.04C191.311 40.9333 193.231 40.88 195.151 40.88H197.391C198.565 40.88 199.311 40.9333 199.631 41.04L200.111 40.56C199.791 40.56 199.471 40.56 199.151 40.56C198.938 40.4533 198.671 40.3467 198.351 40.24C202.938 40.6667 207.258 41.68 211.311 43.28C215.471 44.88 219.471 46.8 223.311 49.04L223.151 49.36C225.818 51.1733 227.791 53.52 229.071 56.4C230.351 59.1733 231.471 61.9467 232.431 64.72C232.538 64.6133 232.591 64.3467 232.591 63.92C232.911 66.3733 233.071 69.2533 233.071 72.56C233.071 75.44 232.858 78.2667 232.431 81.04C232.111 83.8133 231.471 86.48 230.511 89.04C229.658 91.4933 228.431 93.7867 226.831 95.92C225.231 98.0533 223.151 99.92 220.591 101.52C218.565 102.48 216.431 103.227 214.191 103.76C211.951 104.187 209.765 104.773 207.631 105.52C208.485 107.12 209.391 108.72 210.351 110.32C211.418 111.92 212.485 113.467 213.551 114.96L219.951 124.08C222.085 127.173 224.165 130.267 226.191 133.36C228.218 136.453 229.925 139.653 231.311 142.96C231.525 143.493 231.631 143.973 231.631 144.4C231.738 144.72 231.898 145.2 232.111 145.84C232.325 146.48 232.698 147.333 233.231 148.4C233.765 149.467 234.565 150.853 235.631 152.56V152.88C235.845 152.88 235.951 152.933 235.951 153.04ZM224.111 152.4C225.818 152.187 227.418 151.973 228.911 151.76L228.591 151.12H229.231C229.765 151.12 230.245 151.227 230.671 151.44C231.098 151.653 231.578 151.76 232.111 151.76C232.538 151.76 232.858 151.653 233.071 151.44C232.858 151.013 232.538 150.853 232.111 150.96C231.791 151.067 231.631 151.013 231.631 150.8C231.631 150.693 231.791 150.48 232.111 150.16C232.111 149.947 231.951 149.573 231.631 149.04C231.311 148.4 230.991 147.76 230.671 147.12C230.351 146.373 230.031 145.733 229.711 145.2C229.391 144.667 229.231 144.347 229.231 144.24V143.76C229.231 143.12 228.965 142.373 228.431 141.52C227.898 140.56 227.258 139.547 226.511 138.48C225.871 137.413 225.178 136.347 224.431 135.28C223.791 134.107 223.311 133.04 222.991 132.08L223.151 132.24C221.018 129.253 219.098 126.16 217.391 122.96C215.791 119.653 213.765 116.56 211.311 113.68C211.525 114 211.791 114.533 212.111 115.28C212.538 115.92 212.858 116.347 213.071 116.56C211.151 114.213 209.178 111.973 207.151 109.84C205.231 107.6 203.951 105.253 203.311 102.8C203.418 102.907 203.578 102.96 203.791 102.96C206.458 102.96 209.125 102.107 211.791 100.4C214.565 98.5867 216.858 96.4 218.671 93.84H219.311C222.511 89.5733 225.071 85.7333 226.991 82.32C228.911 78.8 229.871 74.8 229.871 70.32C229.871 70 229.818 69.68 229.711 69.36C229.711 69.04 229.711 68.72 229.711 68.4H229.071V67.28C229.071 65.36 228.591 63.5467 227.631 61.84C226.671 60.1333 225.445 58.64 223.951 57.36C222.565 55.9733 220.965 54.7467 219.151 53.68C217.445 52.5067 215.791 51.4933 214.191 50.64L214.351 50.48C215.525 51.0133 216.751 51.4933 218.031 51.92C219.311 52.3467 220.431 52.9867 221.391 53.84C217.765 51.0667 214.725 48.88 212.271 47.28C209.818 45.68 207.791 44.6667 206.191 44.24C203.205 43.6 200.058 43.2267 196.751 43.12C193.551 42.9067 190.405 42.8 187.311 42.8C184.005 42.8 180.698 42.8533 177.391 42.96C174.085 43.0667 170.351 43.2267 166.191 43.44L165.071 43.6V44.08C165.071 43.9733 165.178 44.4533 165.391 45.52C165.605 45.4133 165.765 45.4133 165.871 45.52C165.978 45.52 166.085 45.4133 166.191 45.2L166.671 45.84C167.205 45.84 167.791 45.7867 168.431 45.68C169.178 45.4667 169.871 45.36 170.511 45.36C170.725 45.36 170.885 45.4133 170.991 45.52C171.098 45.52 171.258 45.52 171.471 45.52C170.618 45.9467 169.765 46.2133 168.911 46.32C168.058 46.32 167.258 46.9067 166.511 48.08V49.04C166.511 50.5333 166.191 52.24 165.551 54.16C165.338 59.3867 165.071 64.6667 164.751 70C164.538 75.2267 164.431 80.56 164.431 86C164.431 88.6667 164.485 91.3867 164.591 94.16C164.805 96.9333 165.018 99.5467 165.231 102C165.445 104.453 165.605 106.64 165.711 108.56C165.925 110.373 166.031 111.653 166.031 112.4V115.92C166.031 118.373 165.978 120.88 165.871 123.44C165.765 126 165.711 128.507 165.711 130.96C165.711 132.773 165.765 134.533 165.871 136.24C165.978 137.84 166.191 139.493 166.511 141.2C166.831 141.413 166.991 141.627 166.991 141.84C166.991 142.053 166.671 144.133 166.031 148.08H165.871C165.658 147.973 165.498 147.867 165.391 147.76C165.391 147.547 165.338 147.387 165.231 147.28L165.711 150.96C166.138 151.707 167.098 152.08 168.591 152.08H169.391C170.351 152.08 170.885 152.133 170.991 152.24L170.831 152.4C171.045 152.4 171.258 152.4 171.471 152.4C171.791 152.293 172.111 152.24 172.431 152.24C173.285 152.24 174.191 152.347 175.151 152.56C176.111 152.667 177.125 152.72 178.191 152.72C179.151 152.72 180.218 152.56 181.391 152.24H181.071C181.498 152.027 181.871 151.813 182.191 151.6C182.618 151.387 183.471 151.12 184.751 150.8L185.551 125.84C185.551 125.307 185.551 124.773 185.551 124.24C185.551 123.707 185.498 123.173 185.391 122.64L184.911 123.44C184.805 123.227 184.751 122.747 184.751 122V120.4C184.751 119.12 184.751 117.733 184.751 116.24C184.751 114.64 184.805 113.093 184.911 111.6C185.018 110.107 185.125 108.773 185.231 107.6C185.338 106.32 185.498 105.36 185.711 104.72C186.031 105.36 186.191 105.947 186.191 106.48V106.8C187.045 107.013 187.685 107.6 188.111 108.56C188.538 109.52 189.071 110.373 189.711 111.12L189.391 111.44C191.951 115.387 194.405 119.333 196.751 123.28C199.205 127.227 201.391 131.28 203.311 135.44C204.591 137.04 205.551 138.853 206.191 140.88C206.938 142.8 207.738 144.667 208.591 146.48C209.551 148.187 210.831 149.68 212.431 150.96C214.031 152.133 216.325 152.72 219.311 152.72C220.911 152.72 222.511 152.613 224.111 152.4ZM206.831 72.88C206.831 72.88 206.725 73.3067 206.511 74.16C206.618 74.3733 206.671 74.96 206.671 75.92C206.671 77.7333 206.085 79.3333 204.911 80.72C203.738 82.1067 202.405 83.3333 200.911 84.4C200.271 84.6133 199.578 84.72 198.831 84.72C198.191 84.6133 197.711 84.88 197.391 85.52C195.578 84.9867 193.818 84.72 192.111 84.72C191.151 84.72 190.138 84.7733 189.071 84.88C188.111 84.88 187.098 84.88 186.031 84.88H184.111C183.471 84.88 183.151 84.6133 183.151 84.08V83.6C183.151 83.28 182.885 83.12 182.351 83.12C182.565 82.6933 182.778 82.32 182.991 82C183.205 81.5733 183.311 81.1467 183.311 80.72C183.311 80.2933 183.258 80.0267 183.151 79.92C183.258 79.7067 183.311 79.1733 183.311 78.32V71.76C183.311 70.3733 183.258 69.2 183.151 68.24C183.045 67.28 182.831 66.6933 182.511 66.48L182.191 63.6C182.725 63.6 183.258 63.6 183.791 63.6C184.325 63.4933 184.858 63.44 185.391 63.44C186.671 63.44 187.898 63.4933 189.071 63.6C190.351 63.6 191.578 63.6 192.751 63.6C193.711 63.6 194.671 63.6 195.631 63.6C196.591 63.4933 197.498 63.3333 198.351 63.12C197.818 62.5867 197.551 62.2667 197.551 62.16C197.658 62.16 198.191 62.5333 199.151 63.28C200.218 63.92 201.285 64.7733 202.351 65.84C203.525 66.9067 204.538 68.08 205.391 69.36C206.351 70.64 206.831 71.8133 206.831 72.88ZM198.351 82.96C197.925 83.0667 197.711 83.28 197.711 83.6C199.738 83.6 201.551 82.8 203.151 81.2C204.858 79.6 205.711 77.6267 205.711 75.28C205.711 73.2533 205.285 71.5467 204.431 70.16C203.685 68.7733 202.618 67.6533 201.231 66.8C199.951 65.9467 198.405 65.36 196.591 65.04C194.885 64.72 193.125 64.56 191.311 64.56C190.138 64.56 188.965 64.6133 187.791 64.72C186.725 64.8267 185.605 64.9333 184.431 65.04C184.431 65.68 184.431 66.32 184.431 66.96C184.538 67.6 184.591 68.1867 184.591 68.72C184.591 70.8533 184.538 72.8267 184.431 74.64C184.325 76.4533 184.271 78.32 184.271 80.24C184.271 81.3067 184.378 82.2133 184.591 82.96C184.911 83.7067 185.605 84.08 186.671 84.08C187.845 84.08 189.071 84.0267 190.351 83.92C191.631 83.7067 192.858 83.6 194.031 83.6C195.525 83.6 196.378 83.6533 196.591 83.76C196.591 82.6933 197.125 82.16 198.191 82.16C198.298 82.2667 198.405 82.32 198.511 82.32C198.618 82.32 198.725 82.3733 198.831 82.48C199.045 82.48 199.258 82.48 199.471 82.48C199.258 82.6933 198.885 82.8533 198.351 82.96ZM349.556 117.52C349.77 117.52 349.93 117.733 350.036 118.16L350.196 120.56V121.04C350.196 121.36 350.196 121.68 350.196 122C350.303 122.213 350.356 122.427 350.356 122.64L350.196 122.8C349.983 122.8 349.77 122.747 349.556 122.64C349.45 122.427 349.29 122 349.076 121.36L340.916 122H331.476V122.48L324.596 122.64C321.29 122.747 317.983 122.8 314.676 122.8C311.37 122.693 308.063 122.693 304.756 122.8V123.12C304.543 123.12 303.69 123.173 302.196 123.28C300.81 123.28 298.783 123.333 296.116 123.44V123.76H293.556L274.836 123.44C274.836 123.013 274.57 122.693 274.036 122.48C273.503 122.267 273.13 121.733 272.916 120.88H273.236V117.84H272.916L273.076 117.68C273.076 117.467 273.13 117.307 273.236 117.2L272.916 117.04C273.023 116.827 273.076 116.613 273.076 116.4C273.076 116.08 273.13 115.813 273.236 115.6V99.6C273.236 98.8533 273.29 98.48 273.396 98.48C273.61 98.48 273.823 98.2133 274.036 97.68C273.93 97.5733 273.77 97.52 273.556 97.52C273.45 97.4133 273.396 97.2533 273.396 97.04L273.556 96.88C273.77 96.6667 274.196 96.56 274.836 96.56C278.356 96.4533 280.863 96.3467 282.356 96.24C283.85 96.1333 284.863 96.08 285.396 96.08C285.93 95.9733 286.25 95.92 286.356 95.92C286.463 95.8133 286.996 95.76 287.956 95.76C288.17 95.76 288.49 95.8133 288.916 95.92C289.45 95.92 289.716 95.9733 289.716 96.08L289.556 96.24H323.316L330.516 95.6C330.73 95.6 331.21 95.6 331.956 95.6C332.703 95.4933 333.663 95.3867 334.836 95.28V95.6L348.596 94.64L350.196 96.24C349.983 96.4533 349.876 96.6667 349.876 96.88L349.556 99.6C349.556 101.093 349.556 102.8 349.556 104.72C349.663 106.533 349.823 108.293 350.036 110H349.716C349.716 112.987 349.663 114.96 349.556 115.92C349.45 116.773 349.396 117.307 349.396 117.52H349.556ZM343.796 112.24H343.956L344.436 106.64V105.36C344.436 104.293 344.33 103.547 344.116 103.12C343.903 102.587 343.796 102.053 343.796 101.52C343.796 101.2 343.796 100.88 343.796 100.56C343.903 100.133 343.956 99.76 343.956 99.44C343.956 98.9067 343.903 98.5867 343.796 98.48C343.156 98.6933 342.676 98.8 342.356 98.8L286.036 99.76V100.08C282.516 100.507 280.116 100.773 278.836 100.88C277.663 100.88 277.076 101.573 277.076 102.96V104.72C277.076 106.107 277.076 107.493 277.076 108.88C277.183 110.16 277.29 111.44 277.396 112.72C277.396 113.04 277.343 113.253 277.236 113.36L277.396 114.32L277.236 115.12V116.24C277.236 116.88 277.29 117.52 277.396 118.16C277.61 118.693 278.036 118.96 278.676 118.96L286.516 119.12L299.476 118.96C300.65 118.96 301.876 118.907 303.156 118.8C304.436 118.587 305.716 118.48 306.996 118.48L307.316 118.32C307.743 118.32 308.063 118.373 308.276 118.48C308.596 118.48 308.863 118.48 309.076 118.48H310.196H334.836H336.436L341.556 118.16L341.716 117.84V118.16C341.93 118.053 342.09 118 342.196 118C342.41 118 342.623 117.947 342.836 117.84C342.943 117.84 342.676 117.787 342.036 117.68C341.396 117.467 341.023 117.307 340.916 117.2C341.77 117.2 342.463 117.147 342.996 117.04C343.53 116.827 343.796 116.293 343.796 115.44C343.796 115.227 343.743 114.907 343.636 114.48C343.636 114.053 343.636 113.627 343.636 113.2C343.636 112.667 343.69 112.347 343.796 112.24ZM339.476 117.2H340.116V117.52C340.01 117.52 339.903 117.573 339.796 117.68C339.69 117.68 339.583 117.68 339.476 117.68C339.156 117.68 338.783 117.467 338.356 117.04C338.89 117.04 339.263 117.093 339.476 117.2ZM340.276 117.2H340.756L340.596 117.36C340.49 117.467 340.383 117.52 340.276 117.52V117.2ZM352.514 136.88C354.007 136.453 354.914 136.08 355.234 135.76L357.154 133.84C357.367 133.627 357.527 133.467 357.634 133.36C357.847 133.253 358.007 133.147 358.114 133.04L359.074 132.4C359.074 132.08 359.5 131.6 360.354 130.96V130.32L362.274 129.04L363.394 127.76C363.607 127.653 364.087 127.227 364.834 126.48C365.794 125.2 367.02 123.867 368.514 122.48C370.007 120.987 371.447 119.6 372.834 118.32C374.327 117.04 375.607 115.973 376.674 115.12C377.74 114.267 378.274 113.84 378.274 113.84L379.714 112.4V109.68L380.034 109.84L378.914 108.56L379.074 108.88C378.327 108.24 377.634 107.547 376.994 106.8L377.154 106.96L372.034 101.52H372.194L366.754 96.24L363.234 92.4H363.394C361.367 90.3733 359.874 88.88 358.914 87.92C357.954 86.96 357.26 86.2667 356.834 85.84C356.407 85.3067 356.087 84.9333 355.874 84.72C355.767 84.5067 355.554 84.1333 355.234 83.6H355.074C354.647 83.6 353.794 82.96 352.514 81.68C353.047 80.72 353.367 80.1333 353.474 79.92C353.687 79.6 353.847 79.3867 353.954 79.28L354.114 77.68C354.22 77.68 354.434 77.68 354.754 77.68C355.18 77.5733 355.607 77.52 356.034 77.52L356.514 76.72C356.727 76.6133 357.1 76.4 357.634 76.08C358.274 75.6533 358.594 75.3333 358.594 75.12L365.314 68.4C365.1 68.5067 364.887 68.56 364.674 68.56C364.567 68.56 364.514 68.6133 364.514 68.72C364.407 68.72 364.194 68.2933 363.874 67.44L368.354 67.6L372.194 71.44C372.514 71.8667 372.727 72.24 372.834 72.56C373.047 72.7733 373.26 72.9867 373.474 73.2C373.687 73.4133 373.954 73.7333 374.274 74.16C374.7 74.48 375.234 74.96 375.874 75.6L378.594 78.32C379.127 79.1733 379.98 80.0267 381.154 80.88L388.034 87.92H387.874L388.354 88.4V88.24C389.634 89.6267 390.647 90.7467 391.394 91.6C392.247 92.3467 392.78 92.9333 392.994 93.36L400.034 100.08C400.994 101.04 401.847 102 402.594 102.96C403.447 103.92 404.247 104.88 404.994 105.84L407.554 108.08L409.474 110.32L408.674 112.08C408.674 112.187 408.62 112.347 408.514 112.56C408.407 112.667 408.354 112.773 408.354 112.88L404.994 116.88C404.14 117.947 403.074 119.013 401.794 120.08C400.62 121.04 399.767 121.84 399.234 122.48L396.674 125.36H396.194L372.194 148.24C371.34 149.093 370.7 149.733 370.274 150.16C369.954 150.587 369.634 150.96 369.314 151.28C369.1 151.6 368.78 151.973 368.354 152.4C368.034 152.72 367.5 153.253 366.754 154C366.647 153.893 366.22 153.627 365.474 153.2C364.727 152.773 364.407 152.613 364.514 152.72L362.754 150.48V150.8C362.647 150.587 362.274 150.107 361.634 149.36C361.1 148.507 360.567 147.973 360.034 147.76L355.874 143.44C355.234 142.8 354.86 142.48 354.754 142.48L353.154 141.04V141.2C353.154 141.52 352.94 141.68 352.514 141.68V136.88ZM354.434 139.76L358.274 143.28C359.66 144.56 360.887 145.787 361.954 146.96C363.02 148.027 363.98 149.093 364.834 150.16L365.314 150.96C365.847 151.173 366.167 151.547 366.274 152.08L366.594 151.92L366.434 151.76C366.54 151.76 366.594 151.653 366.594 151.44C366.594 151.333 366.487 151.173 366.274 150.96L370.914 146.64L371.074 146.8L372.034 145.84C372.034 145.733 372.087 145.627 372.194 145.52L372.354 145.68L380.034 138.32C381.74 136.72 383.34 135.227 384.834 133.84C386.327 132.347 387.607 131.067 388.674 130C389.847 128.827 390.754 127.973 391.394 127.44C392.034 126.8 392.354 126.48 392.354 126.48L393.634 125.2V125.36L398.114 120.88C398.54 120.453 399.074 119.92 399.714 119.28C400.46 118.64 401.207 117.947 401.954 117.2C402.7 116.453 403.394 115.76 404.034 115.12C404.78 114.373 405.314 113.787 405.634 113.36L406.754 112.24C406.754 112.027 406.7 111.867 406.594 111.76C406.914 111.44 407.127 111.067 407.234 110.64C407.02 110.427 406.86 110.16 406.754 109.84V110C406.647 109.893 406.54 109.787 406.434 109.68C406.327 109.573 406.167 109.413 405.954 109.2C405.74 108.987 405.367 108.613 404.834 108.08C404.3 107.44 403.554 106.587 402.594 105.52C401.634 104.453 400.834 103.6 400.194 102.96C399.554 102.213 399.127 101.733 398.914 101.52V101.68L391.234 94.16C390.7 93.3067 390.007 92.4533 389.154 91.6C388.3 90.7467 387.447 89.9467 386.594 89.2L380.994 83.44L380.514 82.64C380.194 82.4267 379.66 81.9467 378.914 81.2C378.167 80.3467 377.207 79.3333 376.034 78.16L374.594 76.88C373.954 76.1333 373.42 75.6 372.994 75.28C372.674 74.96 372.354 74.64 372.034 74.32C371.714 74 371.287 73.6267 370.754 73.2C370.22 72.6667 369.474 71.8667 368.514 70.8L368.834 70.64C368.62 70.4267 368.46 70.2667 368.354 70.16C368.247 69.9467 368.14 69.7867 368.034 69.68L367.874 69.36H366.434V69.68C366.434 69.8933 366.22 70.16 365.794 70.48L363.234 73.04C361.954 74.32 360.62 75.7067 359.234 77.2C357.954 78.6933 357.1 79.44 356.674 79.44L355.554 80.08L355.714 80.24C355.5 80.56 355.074 80.8267 354.434 81.04L354.754 81.36H354.594L354.754 81.52V81.36L354.914 81.52C354.914 81.4133 354.967 81.36 355.074 81.36C355.287 81.36 355.5 81.3067 355.714 81.2L359.874 85.84L359.714 86L368.354 94.8L368.194 94.96L378.754 105.52L378.594 105.68C378.914 106.107 379.394 106.693 380.034 107.44C380.78 108.187 381.74 109.147 382.914 110.32V110.64L383.554 111.12C381.314 113.147 379.767 114.587 378.914 115.44C378.06 116.187 377.26 116.88 376.514 117.52C375.767 118.16 374.807 119.067 373.634 120.24C372.567 121.307 370.594 123.227 367.714 126C367.18 126.64 366.54 127.333 365.794 128.08C365.047 128.827 364.407 129.413 363.874 129.84L361.474 132.56L360.834 132.88C360.194 133.413 359.66 133.893 359.234 134.32C358.914 134.64 358.38 135.227 357.634 136.08L355.874 138L355.714 137.84C355.394 138.16 355.074 138.373 354.754 138.48H354.434V139.12V139.76ZM481.39 64.24C478.403 64.24 475.63 65.36 473.07 67.6L471.15 70.16C470.723 76.56 470.403 82.48 470.19 87.92C469.977 93.2533 469.87 99.12 469.87 105.52C469.87 108.293 469.977 111.12 470.19 114C470.403 116.88 470.883 119.547 471.63 122C472.483 124.453 473.657 126.48 475.15 128.08C476.75 129.573 478.83 130.32 481.39 130.32C484.59 130.32 486.937 129.627 488.43 128.24C490.03 126.853 491.097 125.093 491.63 122.96C492.27 120.72 492.643 118.32 492.75 115.76C492.857 113.2 493.07 110.747 493.39 108.4C494.243 108.507 494.83 108.613 495.15 108.72C495.47 108.72 496.003 108.72 496.75 108.72C497.603 108.72 498.99 108.72 500.91 108.72C502.83 108.72 505.817 108.773 509.87 108.88C510.403 108.773 510.83 108.667 511.15 108.56C511.577 108.453 512.003 108.4 512.43 108.4C513.283 108.4 514.137 108.72 514.99 109.36C514.99 112.133 515.15 114.96 515.47 117.84C515.79 120.613 515.95 123.387 515.95 126.16C515.95 130.533 514.883 134.587 512.75 138.32C510.723 141.947 508.163 145.147 505.07 147.92C501.977 150.587 498.617 152.667 494.99 154.16C491.47 155.76 488.217 156.56 485.23 156.56C480.75 156.56 478.35 156.507 478.03 156.4L471.63 154.96C471.63 155.493 471.417 155.867 470.99 156.08C470.67 156.293 470.297 156.4 469.87 156.4C463.683 156.4 458.99 154.853 455.79 151.76C452.59 148.56 450.297 144.56 448.91 139.76C447.523 134.96 446.723 129.787 446.51 124.24C446.297 118.587 446.137 113.307 446.03 108.4L445.87 108.08C445.443 109.467 445.23 111.333 445.23 113.68C445.23 115.173 445.283 116.72 445.39 118.32C445.603 119.813 445.817 121.307 446.03 122.8L445.07 122.64C445.07 115.28 445.283 107.76 445.71 100.08C446.243 92.4 446.51 84.72 446.51 77.04V70.96C446.51 69.8933 446.457 68.88 446.35 67.92C446.35 66.96 446.297 65.9467 446.19 64.88C447.257 60.8267 448.59 56.8267 450.19 52.88C451.897 48.8267 454.19 45.0933 457.07 41.68C459.63 40.1867 462.35 39.3333 465.23 39.12C468.11 38.9067 471.203 38.7467 474.51 38.64C478.563 38.8533 482.19 38.96 485.39 38.96C488.59 38.96 492.003 39.5467 495.63 40.72C496.483 41.5733 497.443 42.2667 498.51 42.8C499.577 43.3333 500.643 43.92 501.71 44.56C502.883 45.0933 503.95 45.7333 504.91 46.48C505.87 47.2267 506.67 48.1867 507.31 49.36C512.217 55.76 515.363 62.6933 516.75 70.16C516.643 72.6133 516.377 75.0133 515.95 77.36C515.523 79.7067 515.31 82.1067 515.31 84.56C515.31 85.84 515.363 86.5867 515.47 86.8C514.19 87.0133 512.963 87.1733 511.79 87.28C510.617 87.3867 509.443 87.44 508.27 87.44C506.457 87.44 504.643 87.3867 502.83 87.28C501.123 87.0667 499.363 86.96 497.55 86.96C497.017 86.96 496.43 87.0133 495.79 87.12C495.257 87.12 494.723 87.12 494.19 87.12C493.657 86.9067 493.07 86.7467 492.43 86.64C491.79 86.5333 491.417 86.1067 491.31 85.36C491.097 83.6533 490.99 81.6267 490.99 79.28C490.99 76.8267 490.723 74.48 490.19 72.24C489.763 70 488.91 68.1333 487.63 66.64C486.35 65.04 484.27 64.24 481.39 64.24ZM467.79 115.28C467.577 111.973 467.417 108.987 467.31 106.32V100.72C467.417 100.187 467.47 99.6533 467.47 99.12C467.47 98.48 467.47 97.8933 467.47 97.36V87.12C467.47 82.32 467.79 77.7867 468.43 73.52C469.07 69.2533 470.83 65.3067 473.71 61.68H474.51C475.897 61.68 476.963 61.4667 477.71 61.04C478.563 60.5067 479.737 60.24 481.23 60.24C484.43 60.24 486.777 61.0933 488.27 62.8C489.87 64.4 491.043 66.4267 491.79 68.88C492.537 71.3333 492.963 74 493.07 76.88C493.283 79.6533 493.55 82.16 493.87 84.4H511.63L512.59 83.76C512.59 82.16 512.697 80.6667 512.91 79.28C513.123 77.7867 513.23 76.24 513.23 74.64C513.23 71.44 512.803 68.6133 511.95 66.16C511.203 63.7067 510.137 61.4667 508.75 59.44C507.363 57.3067 505.71 55.28 503.79 53.36C501.977 51.3333 500.057 49.2533 498.03 47.12C494.937 45.6267 491.63 44.4533 488.11 43.6C484.59 42.64 481.017 42.16 477.39 42.16C474.51 42.16 471.63 42.48 468.75 43.12C465.977 43.76 463.363 44.72 460.91 46C460.377 46.1067 460.003 46.4267 459.79 46.96C459.577 47.3867 459.257 47.6 458.83 47.6L458.51 47.28L455.95 49.04C454.03 50.64 452.75 52.4533 452.11 54.48C451.47 56.4 451.097 58.48 450.99 60.72C450.883 62.96 450.83 65.2533 450.83 67.6C450.937 69.84 450.777 71.9733 450.35 74C450.137 74 450.03 73.84 450.03 73.52C450.137 73.2 450.083 72.88 449.87 72.56L449.23 82C448.91 86.0533 448.75 90.0533 448.75 94C448.75 95.1733 448.75 96.3467 448.75 97.52C448.857 98.5867 448.91 99.7067 448.91 100.88L449.71 101.36C449.39 102.96 449.23 103.973 449.23 104.4C449.23 104.72 449.283 104.88 449.39 104.88L449.71 104.72C449.603 105.253 449.497 105.787 449.39 106.32C449.39 106.747 449.39 107.227 449.39 107.76V117.2C449.39 117.627 449.39 118.053 449.39 118.48C449.39 118.907 449.337 119.333 449.23 119.76L449.87 122.32C449.443 123.493 449.23 124.987 449.23 126.8C449.23 129.893 449.923 133.04 451.31 136.24C452.803 139.333 454.99 142.16 457.87 144.72C460.75 147.28 464.27 149.36 468.43 150.96C472.59 152.56 477.39 153.36 482.83 153.36C485.497 153.36 488.27 152.987 491.15 152.24C494.03 151.493 496.75 150.373 499.31 148.88C501.977 147.387 504.323 145.52 506.35 143.28C508.377 141.04 509.87 138.427 510.83 135.44L510.19 135.28C511.257 132.933 511.897 130.693 512.11 128.56C512.323 126.427 512.43 124.187 512.43 121.84C512.43 118.427 511.897 116.133 510.83 114.96C509.87 113.787 508.43 113.2 506.51 113.2C505.123 113.2 503.683 113.36 502.19 113.68C500.697 113.893 499.257 114 497.87 114C496.803 114 496.163 113.947 495.95 113.84C495.843 115.973 495.47 118 494.83 119.92C494.297 121.84 494.03 123.867 494.03 126C493.177 127.707 491.897 129.093 490.19 130.16C488.483 131.227 487.097 132.613 486.03 134.32C485.283 134.747 484.11 134.96 482.51 134.96C478.99 134.96 476.217 134 474.19 132.08C472.163 130.053 470.67 127.6 469.71 124.72C468.75 121.733 468.11 118.587 467.79 115.28ZM585.435 101.84C585.542 104.187 585.702 106.587 585.915 109.04C586.128 111.28 586.288 113.467 586.395 115.6C586.502 117.733 586.555 119.867 586.555 122C586.555 124.453 586.395 126.853 586.075 129.2C585.862 131.547 585.382 133.84 584.635 136.08C584.102 137.68 583.515 139.387 582.875 141.2C582.342 143.013 581.702 144.773 580.955 146.48C580.208 148.08 579.248 149.573 578.075 150.96C577.008 152.24 575.675 153.2 574.075 153.84C572.582 154.373 570.822 154.693 568.795 154.8C566.875 155.013 564.848 155.12 562.715 155.12C561.542 155.12 560.368 155.067 559.195 154.96C558.022 154.96 556.955 154.96 555.995 154.96C554.715 154.96 553.008 154.907 550.875 154.8C548.742 154.8 546.555 154.693 544.315 154.48C542.075 154.267 539.888 153.947 537.755 153.52C535.728 153.093 534.075 152.453 532.795 151.6C530.982 150.427 529.328 148.72 527.835 146.48C526.448 144.24 525.275 141.68 524.315 138.8C523.355 135.92 522.608 132.827 522.075 129.52C521.542 126.213 521.275 122.907 521.275 119.6C521.275 114.693 521.648 109.947 522.395 105.36C523.248 100.667 523.675 96.0267 523.675 91.44C523.675 90.9067 523.622 90.3733 523.515 89.84C523.408 89.2 523.355 88.4533 523.355 87.6C523.355 84.2933 523.942 81.6267 525.115 79.6C526.288 77.4667 527.728 75.8667 529.435 74.8C531.142 73.6267 532.955 72.8267 534.875 72.4C536.795 71.8667 538.555 71.4933 540.155 71.28C541.755 71.0667 543.355 70.9067 544.955 70.8C546.555 70.5867 548.262 70.48 550.075 70.48C552.635 70.48 555.462 70.6933 558.555 71.12C561.755 71.5467 564.795 72.1333 567.675 72.88C570.555 73.52 573.115 74.2667 575.355 75.12C577.595 75.9733 579.195 76.88 580.155 77.84C580.688 78.2667 581.008 78.9067 581.115 79.76C581.328 80.6133 581.808 81.04 582.555 81.04C582.875 81.2533 583.035 81.5733 583.035 82V82.96C583.035 84.9867 583.302 86.96 583.835 88.88C584.475 90.8 584.902 92.8267 585.115 94.96C585.328 97.0933 585.435 99.3867 585.435 101.84ZM552.635 152.72C557.008 152.72 562.448 151.867 568.955 150.16C572.475 148.773 575.195 147.173 577.115 145.36C579.142 143.44 580.582 140.72 581.435 137.2C582.288 133.573 582.768 128.827 582.875 122.96C583.088 116.987 583.195 109.2 583.195 99.6C583.195 97.2533 583.035 94.8533 582.715 92.4C582.502 89.9467 582.022 87.7067 581.275 85.68C580.635 83.5467 579.782 81.7333 578.715 80.24C577.648 78.64 576.315 77.52 574.715 76.88C574.182 76.6667 573.542 76.56 572.795 76.56C572.155 76.56 571.408 76.4533 570.555 76.24C569.062 75.8133 567.675 75.2267 566.395 74.48C565.222 73.6267 563.995 73.2 562.715 73.2C562.182 73.2 561.702 73.2533 561.275 73.36C560.955 73.36 560.528 73.4133 559.995 73.52C557.435 73.7333 554.715 73.84 551.835 73.84C548.955 73.84 546.128 73.8933 543.355 74C540.688 74.1067 538.235 74.32 535.995 74.64C533.862 74.96 532.262 75.4933 531.195 76.24C530.555 76.7733 529.968 77.84 529.435 79.44C529.008 80.9333 528.528 82.2133 527.995 83.28C527.248 85.2 526.662 86.9067 526.235 88.4C525.808 89.7867 525.435 91.12 525.115 92.4C524.902 93.5733 524.742 94.8 524.635 96.08C524.528 97.2533 524.475 98.5867 524.475 100.08V119.28C524.475 125.147 524.635 129.52 524.955 132.4C525.275 135.173 525.648 137.253 526.075 138.64C526.608 139.92 527.195 140.88 527.835 141.52C528.582 142.16 529.328 143.227 530.075 144.72C530.715 145.68 531.942 146.64 533.755 147.6C535.568 148.453 537.595 149.307 539.835 150.16C542.075 150.907 544.368 151.547 546.715 152.08C549.062 152.507 551.035 152.72 552.635 152.72ZM565.435 101.2C566.288 102.693 566.822 104.133 567.035 105.52C567.142 106.16 567.195 106.8 567.195 107.44C567.302 107.973 567.355 108.56 567.355 109.2C567.355 109.52 567.302 110.533 567.195 112.24C567.195 113.84 567.142 115.6 567.035 117.52C566.928 119.44 566.822 121.307 566.715 123.12C566.715 124.827 566.715 126 566.715 126.64C566.502 129.093 565.755 131.013 564.475 132.4C563.302 133.787 561.062 134.48 557.755 134.48C554.662 134.48 552.048 134.32 549.915 134C547.888 133.573 546.288 132.933 545.115 132.08C543.942 131.227 543.088 130.16 542.555 128.88C542.128 127.493 541.915 125.84 541.915 123.92C541.915 121.787 542.075 119.653 542.395 117.52C542.715 115.28 542.982 113.2 543.195 111.28C543.195 110.32 543.088 109.36 542.875 108.4C542.662 107.44 542.555 106.587 542.555 105.84C542.768 104.667 543.088 103.547 543.515 102.48C544.048 101.413 544.315 100.293 544.315 99.12V98.16C545.808 97.0933 547.462 95.8133 549.275 94.32C551.088 92.72 553.062 91.92 555.195 91.92C556.475 91.92 557.755 92.4 559.035 93.36C560.315 94.2133 561.488 95.3333 562.555 96.72C563.728 98.1067 564.688 99.6 565.435 101.2ZM543.995 122.64C544.208 124.027 544.582 125.253 545.115 126.32C545.648 127.813 546.822 129.093 548.635 130.16C550.555 131.12 552.528 131.6 554.555 131.6C556.155 131.6 557.435 131.333 558.395 130.8C559.355 130.16 560.102 129.36 560.635 128.4C561.168 127.333 561.595 126.107 561.915 124.72C562.342 123.333 562.768 121.84 563.195 120.24C563.408 119.173 563.622 118.107 563.835 117.04C564.155 115.867 564.315 114.32 564.315 112.4C564.315 109.307 564.155 106.747 563.835 104.72C563.515 102.693 562.982 101.093 562.235 99.92C561.488 98.64 560.475 97.7333 559.195 97.2C557.915 96.6667 556.368 96.2933 554.555 96.08C551.888 96.08 549.808 96.72 548.315 98C546.928 99.1733 545.862 100.773 545.115 102.8C544.475 104.827 544.102 107.173 543.995 109.84C543.888 112.507 543.835 115.227 543.835 118C543.835 119.6 543.888 121.147 543.995 122.64ZM659.714 39.44C659.82 39.2267 660.087 39.12 660.514 39.12C660.407 42.8533 660.354 45.9467 660.354 48.4C660.354 50.8533 660.354 52.6667 660.354 53.84C660.354 65.1467 659.98 76.5067 659.234 87.92C658.594 99.2267 658.274 111.013 658.274 123.28V130.8C658.274 133.36 658.38 136.027 658.594 138.8C658.914 141.467 659.074 143.707 659.074 145.52C659.074 148.293 658.914 150.96 658.594 153.52C657.74 153.52 657.047 153.253 656.514 152.72C656.087 152.08 655.287 151.76 654.114 151.76C653.9 151.973 653.794 152.347 653.794 152.88C653.9 153.307 653.634 153.52 652.994 153.52C652.78 153.52 652.567 153.52 652.354 153.52C652.14 153.413 651.927 153.36 651.714 153.36H649.474C649.474 153.573 649.047 153.733 648.194 153.84C647.447 153.947 646.54 154 645.474 154C644.514 154.107 643.5 154.16 642.434 154.16C641.367 154.267 640.62 154.373 640.194 154.48C638.38 155.013 637.42 155.28 637.314 155.28C637.1 155.28 636.94 155.013 636.834 154.48C636.727 154.053 636.62 153.52 636.514 152.88L636.354 147.6C636.354 146.747 636.407 146.267 636.514 146.16C636.087 146.587 635.82 147.013 635.714 147.44C635.607 147.76 635.5 148.133 635.394 148.56C635.287 148.987 635.074 149.52 634.754 150.16C634.54 150.693 634.114 151.333 633.474 152.08C631.98 153.253 630.167 154.053 628.034 154.48C625.9 154.907 623.66 155.12 621.314 155.12C619.82 155.12 618.274 155.013 616.674 154.8C615.18 154.693 613.794 154.48 612.514 154.16C611.34 153.947 610.327 153.68 609.474 153.36C608.727 152.933 608.354 152.56 608.354 152.24C608.354 152.027 608.407 151.867 608.514 151.76C606.274 150.373 604.14 148.347 602.114 145.68C600.194 142.907 598.434 139.867 596.834 136.56C595.34 133.147 594.167 129.573 593.314 125.84C592.46 122 592.034 118.267 592.034 114.64C592.034 110.8 592.247 106.853 592.674 102.8C593.1 98.7467 593.847 94.96 594.914 91.44C596.087 87.8133 597.527 84.6133 599.234 81.84C601.047 78.96 603.34 76.7733 606.114 75.28C606.22 75.1733 607.074 74.9067 608.674 74.48C610.274 74.0533 612.087 73.6267 614.114 73.2C616.247 72.6667 618.327 72.24 620.354 71.92C622.38 71.4933 623.874 71.28 624.834 71.28C626.967 71.28 628.994 71.6533 630.914 72.4C632.94 73.1467 634.967 73.8933 636.994 74.64C636.887 74.5333 636.834 74.1067 636.834 73.36C636.834 72.8267 636.887 71.8667 636.994 70.48C637.207 69.0933 637.42 67.44 637.634 65.52C637.847 63.6 638.007 61.52 638.114 59.28C638.327 57.04 638.434 54.8533 638.434 52.72C638.434 48.24 637.847 43.9733 636.674 39.92L640.674 39.12C643.767 39.12 646.54 39.44 648.994 40.08C651.447 40.6133 654.06 40.88 656.834 40.88C657.687 40.88 658.274 40.8267 658.594 40.72C658.914 40.5067 659.127 40.2933 659.234 40.08C659.447 39.76 659.607 39.5467 659.714 39.44ZM649.154 150.96C651.287 150.747 654.007 150.533 657.314 150.32C657.207 148.827 657.154 147.333 657.154 145.84C657.154 144.347 657.154 142.853 657.154 141.36V132.4C657.154 117.04 657.367 102.107 657.794 87.6C658.327 72.9867 658.594 58 658.594 42.64C656.78 42.5333 655.074 42.2667 653.474 41.84C651.874 41.4133 650.167 41.2 648.354 41.2C648.034 41.2 647.714 41.2533 647.394 41.36C647.074 41.36 646.754 41.36 646.434 41.36H646.274C645.634 41.36 644.567 41.6267 643.074 42.16C641.58 42.6933 640.727 43.7067 640.514 45.2C640.3 46.48 640.087 49.4133 639.874 54C639.66 58.48 639.447 64.6133 639.234 72.4C639.234 72.9333 639.234 73.4667 639.234 74C639.34 74.5333 639.394 75.0667 639.394 75.6C639.394 75.92 639.34 76.24 639.234 76.56C639.234 76.88 639.234 77.1467 639.234 77.36C638.7 76.8267 638.22 76.56 637.794 76.56C637.367 76.56 636.887 76.6667 636.354 76.88C635.927 76.9867 635.394 77.04 634.754 77.04C633.154 77.04 631.607 76.6667 630.114 75.92C628.727 75.1733 627.234 74.8 625.634 74.8C623.927 74.8 622.327 75.0133 620.834 75.44C619.34 75.76 618.06 76.0267 616.994 76.24C616.247 75.8133 615.447 75.6 614.594 75.6C611.927 75.6 609.42 76.5067 607.074 78.32C604.727 80.0267 602.647 82.4267 600.834 85.52C599.127 88.5067 597.74 92.08 596.674 96.24C595.714 100.4 595.234 104.88 595.234 109.68C595.234 113.52 595.714 116.88 596.674 119.76C597.634 122.533 598.54 125.627 599.394 129.04C600.247 132.347 601.154 135.28 602.114 137.84C603.074 140.293 604.3 142.373 605.794 144.08C607.287 145.787 609.154 147.067 611.394 147.92C613.74 148.773 616.674 149.2 620.194 149.2C622.434 149.2 624.14 148.987 625.314 148.56C626.594 148.133 627.66 147.653 628.514 147.12C629.474 146.48 630.38 145.84 631.234 145.2C632.087 144.56 633.26 144.027 634.754 143.6C635.074 143.28 635.234 142.907 635.234 142.48C635.34 141.947 635.767 141.68 636.514 141.68C637.367 142 637.794 142.533 637.794 143.28C637.794 143.813 637.634 144.293 637.314 144.72C637.847 145.36 638.167 146.16 638.274 147.12C638.38 148.08 638.434 149.147 638.434 150.32C640.247 150.853 642.06 151.12 643.874 151.12C645.367 151.12 647.127 151.067 649.154 150.96ZM616.034 95.6C619.34 92.08 623.607 90 628.834 89.36H630.114C632.354 89.36 634.167 89.7333 635.554 90.48C636.94 91.2267 638.007 92.3467 638.754 93.84C639.5 95.2267 639.98 96.9867 640.194 99.12C640.407 101.253 640.514 103.653 640.514 106.32C640.514 107.173 640.46 108.56 640.354 110.48C640.354 112.293 640.3 114.16 640.194 116.08C640.087 118 639.927 119.707 639.714 121.2C639.607 122.693 639.447 123.44 639.234 123.44C639.127 123.44 639.02 123.387 638.914 123.28C638.807 123.067 638.7 122.96 638.594 122.96C638.38 122.96 638.274 123.013 638.274 123.12C638.06 124.933 637.634 126.747 636.994 128.56C636.46 130.373 635.714 132.027 634.754 133.52C633.794 134.907 632.62 136.027 631.234 136.88C629.954 137.733 628.514 138.16 626.914 138.16C625.207 138.16 623.714 137.84 622.434 137.2C621.26 136.56 620.194 135.707 619.234 134.64C618.274 133.467 617.42 132.187 616.674 130.8C615.927 129.413 615.18 127.92 614.434 126.32C613.9 125.36 613.634 124.4 613.634 123.44C613.634 122.373 613.527 121.093 613.314 119.6C612.78 117.467 612.3 115.44 611.874 113.52C611.447 111.6 611.234 109.68 611.234 107.76C611.234 103.173 612.834 99.12 616.034 95.6ZM637.314 120.56C637.634 118 637.794 115.44 637.794 112.88C637.794 110.32 637.74 107.76 637.634 105.2C637.634 102.533 637.42 100.187 636.994 98.16C636.567 96.0267 635.82 94.32 634.754 93.04C633.687 91.6533 632.14 90.96 630.114 90.96C628.3 90.96 626.38 91.3867 624.354 92.24C622.327 93.0933 620.46 94.3733 618.754 96.08C617.047 97.68 615.66 99.7067 614.594 102.16C613.527 104.613 612.994 107.493 612.994 110.8C612.994 114 613.367 117.04 614.114 119.92C614.967 122.8 616.087 125.307 617.474 127.44C618.86 129.573 620.46 131.28 622.274 132.56C624.194 133.733 626.274 134.32 628.514 134.32C630.434 134.32 631.98 133.68 633.154 132.4C634.327 131.12 635.234 129.467 635.874 127.44C636.62 125.413 637.1 123.12 637.314 120.56ZM714.256 114.8C711.59 114.48 708.87 114.267 706.096 114.16L705.296 114.48C704.763 114.48 704.176 114.373 703.536 114.16C702.896 113.947 702.31 113.84 701.776 113.84C701.03 113.84 700.23 113.893 699.376 114C698.523 114.107 697.67 114.16 696.816 114.16C695.856 114.16 694.843 114.053 693.776 113.84C692.816 113.627 691.803 113.253 690.736 112.72C691.376 114.853 691.803 117.2 692.016 119.76C692.23 122.213 692.603 124.56 693.136 126.8C693.67 129.04 694.523 130.907 695.696 132.4C696.976 133.893 699.003 134.64 701.776 134.64C705.403 134.64 707.963 133.36 709.456 130.8C710.95 128.133 711.803 125.093 712.016 121.68C713.403 121.893 714.95 122.053 716.656 122.16C718.363 122.267 719.963 122.32 721.456 122.32C723.056 122.32 724.443 122.32 725.616 122.32C726.896 122.32 727.803 122.32 728.336 122.32C729.296 122.32 729.99 122.107 730.416 121.68C730.416 123.28 730.416 125.04 730.416 126.96C730.523 128.773 730.576 130.587 730.576 132.4C730.576 135.173 730.363 137.893 729.936 140.56C729.616 143.12 728.816 145.147 727.536 146.64C726.363 147.92 724.87 149.147 723.056 150.32C721.243 151.387 719.163 152.4 716.816 153.36C714.47 154.213 711.963 154.853 709.296 155.28C706.736 155.813 704.176 156.08 701.616 156.08C696.07 156.08 691.216 155.12 687.056 153.2C683.003 151.28 679.59 148.667 676.816 145.36C674.15 142.053 672.123 138.213 670.736 133.84C669.456 129.36 668.816 124.613 668.816 119.6V108.24C668.816 102.053 669.456 96.3467 670.736 91.12C672.016 85.8933 674.31 81.68 677.616 78.48C678.363 77.7333 679.536 76.9867 681.136 76.24C682.736 75.3867 684.603 74.64 686.736 74C688.976 73.36 691.43 72.88 694.096 72.56C696.763 72.1333 699.536 71.92 702.416 71.92C705.19 71.92 707.91 72.24 710.576 72.88C713.35 73.4133 715.856 74.2133 718.096 75.28C720.443 76.24 722.416 77.4133 724.016 78.8C725.616 80.1867 726.683 81.68 727.216 83.28C727.75 84.4533 728.07 85.7333 728.176 87.12C728.39 88.5067 728.976 89.4667 729.936 90C730.363 92.4533 730.79 95.0667 731.216 97.84C731.75 100.613 732.016 103.387 732.016 106.16C732.016 108.933 731.803 111.013 731.376 112.4C730.203 113.573 728.816 114.32 727.216 114.64C725.616 114.96 723.803 115.12 721.776 115.12C719.43 115.12 716.923 115.013 714.256 114.8ZM689.776 110.48C690.31 110.48 690.843 110 691.376 109.04C691.91 109.573 692.496 109.84 693.136 109.84C693.776 109.84 694.416 109.787 695.056 109.68C695.803 109.467 696.603 109.36 697.456 109.36C698.95 109.36 700.39 109.573 701.776 110C703.163 110.32 704.603 110.587 706.096 110.8C707.59 111.013 709.99 111.173 713.296 111.28C716.71 111.387 721.03 111.6 726.256 111.92C727.536 111.92 728.336 111.867 728.656 111.76C729.19 110.267 729.51 108.773 729.616 107.28C729.83 105.68 729.936 104.133 729.936 102.64C729.936 89.9467 725.936 81.5733 717.936 77.52C716.336 76.6667 713.99 76.08 710.896 75.76C707.803 75.3333 704.39 75.12 700.656 75.12C697.67 75.12 694.363 75.44 690.736 76.08C687.216 76.6133 683.856 78 680.656 80.24C677.563 82.3733 674.95 85.5733 672.816 89.84C670.683 94 669.616 99.7067 669.616 106.96C669.616 112.827 670.15 118.373 671.216 123.6C672.39 128.827 673.99 133.467 676.016 137.52C678.043 141.573 680.39 144.88 683.056 147.44C685.723 149.893 688.603 151.28 691.696 151.6C693.83 151.813 695.803 151.973 697.616 152.08C699.536 152.08 701.403 152.08 703.216 152.08C706.31 152.08 708.816 152.027 710.736 151.92C712.763 151.813 714.47 151.547 715.856 151.12C717.243 150.587 718.47 149.893 719.536 149.04C720.603 148.08 721.776 146.8 723.056 145.2C726.79 139.547 728.656 132.347 728.656 123.6C727.59 123.493 726.63 123.44 725.776 123.44C724.923 123.333 724.07 123.28 723.216 123.28H717.456C717.03 123.28 716.603 123.28 716.176 123.28C715.856 123.28 715.43 123.227 714.896 123.12C714.256 124.613 713.563 126.32 712.816 128.24C712.176 130.053 711.376 131.76 710.416 133.36C709.456 134.96 708.283 136.293 706.896 137.36C705.51 138.427 703.803 138.96 701.776 138.96C699.43 138.96 697.35 138.373 695.536 137.2C693.723 135.92 692.176 134.32 690.896 132.4C689.723 130.48 688.816 128.293 688.176 125.84C687.536 123.387 687.216 120.933 687.216 118.48C687.216 116.133 687.643 113.413 688.496 110.32C688.71 110.32 688.923 110.373 689.136 110.48C689.35 110.48 689.563 110.48 689.776 110.48ZM712.976 102.96C712.976 102.747 712.87 102.533 712.656 102.32C711.91 102.747 710.256 102.96 707.696 102.96C705.136 102.96 702.363 102.64 699.376 102C696.496 101.253 694.15 100.88 692.336 100.88C690.95 100.88 690.15 101.467 689.936 102.64C689.616 102.213 689.19 101.84 688.656 101.52C688.23 101.093 688.016 100.453 688.016 99.6C688.016 98.8533 688.07 98.1067 688.176 97.36C688.39 96.6133 688.496 95.8667 688.496 95.12C688.496 94.16 688.443 93.6267 688.336 93.52C688.976 92.88 689.563 92.1333 690.096 91.28L691.856 88.72C692.496 87.8667 693.19 87.1733 693.936 86.64C694.683 86 695.643 85.68 696.816 85.68C697.883 85.68 698.736 85.9467 699.376 86.48C700.016 86.9067 700.87 87.12 701.936 87.12C702.363 87.12 702.736 87.12 703.056 87.12C703.483 87.0133 703.91 86.96 704.336 86.96C705.296 86.96 706.15 87.28 706.896 87.92C707.643 88.4533 708.443 88.72 709.296 88.72C709.723 88.72 709.99 88.6667 710.096 88.56C711.27 89.9467 712.443 91.4933 713.616 93.2C714.896 94.8 715.536 96.6667 715.536 98.8C715.536 99.3333 715.27 100.187 714.736 101.36C714.203 102.533 713.83 103.12 713.616 103.12C713.296 103.12 713.083 103.067 712.976 102.96ZM691.696 96.72C692.016 97.36 692.176 98.1067 692.176 98.96C692.39 98.8533 693.563 98.8 695.696 98.8C697.936 98.8 699.91 98.8 701.616 98.8C703.43 98.8 704.763 98.8533 705.616 98.96C705.723 98.8533 705.776 98.7467 705.776 98.64C705.67 98.64 705.616 98.5867 705.616 98.48V98.16C707.003 98.48 707.75 98.6933 707.856 98.8C707.856 98.3733 708.23 98.16 708.976 98.16C709.403 98.16 709.883 98.2133 710.416 98.32C711.056 98.32 711.643 98.32 712.176 98.32C712.176 95.5467 711.643 93.3067 710.576 91.6C709.51 89.8933 707.323 89.04 704.016 89.04C702.523 89.04 701.03 89.2 699.536 89.52C698.043 89.7333 696.656 90.1067 695.376 90.64C694.203 91.0667 693.19 91.6533 692.336 92.4C691.59 93.04 691.216 93.7867 691.216 94.64C691.216 95.28 691.376 95.9733 691.696 96.72ZM792.71 74C792.923 74 793.137 73.9467 793.35 73.84C793.35 80.3467 793.297 85.68 793.19 89.84C793.19 93.8933 793.137 97.0933 793.03 99.44C792.923 101.68 792.763 103.227 792.55 104.08C792.443 104.933 792.283 105.36 792.07 105.36L789.99 105.2C789.777 104.987 789.617 104.72 789.51 104.4C789.403 103.973 788.71 103.493 787.43 102.96C786.15 102.427 784.23 101.84 781.67 101.2C779.217 100.56 776.87 100.24 774.63 100.24C772.177 100.24 770.203 100.933 768.71 102.32C767.323 103.707 766.203 105.467 765.35 107.6C764.603 109.733 764.123 112.133 763.91 114.8C763.697 117.36 763.59 119.813 763.59 122.16C763.59 124.933 763.643 127.813 763.75 130.8C763.963 133.787 764.177 136.72 764.39 139.6C764.603 142.373 764.817 145.093 765.03 147.76C765.243 150.32 765.403 152.613 765.51 154.64C762.95 155.067 760.39 155.387 757.83 155.6C755.377 155.92 753.137 156.133 751.11 156.24C749.083 156.347 747.377 156.4 745.99 156.4C744.603 156.507 743.75 156.56 743.43 156.56C741.937 156.56 740.763 156.133 739.91 155.28V150.8C739.483 142.693 739.163 135.973 738.95 130.64C738.737 125.2 738.63 121.093 738.63 118.32C738.63 112.24 738.843 106.373 739.27 100.72C739.803 95.0667 740.07 89.84 740.07 85.04C740.07 81.9467 739.91 79.12 739.59 76.56C740.657 76.56 741.243 76.2933 741.35 75.76C741.457 75.2267 741.67 74.4267 741.99 73.36C743.057 73.5733 743.697 73.68 743.91 73.68C747.537 73.68 750.577 73.4667 753.03 73.04C755.483 72.6133 757.99 72.4 760.55 72.4H762.31C762.417 72.2933 762.47 72.24 762.47 72.24C762.47 72.1333 762.523 72.0267 762.63 71.92L763.11 71.44C763.643 72.5067 763.857 73.84 763.75 75.44C763.75 77.04 764.017 78.5333 764.55 79.92C778.31 76.9333 787.27 74.6933 791.43 73.2C791.857 73.4133 792.07 73.6267 792.07 73.84C792.177 74.0533 792.337 74.16 792.55 74.16C792.55 74.0533 792.603 74 792.71 74ZM781.35 98.48C784.017 99.8667 786.737 100.933 789.51 101.68C789.617 98.6933 789.777 95.6533 789.99 92.56C790.31 89.36 790.47 86.2667 790.47 83.28C790.47 80.9333 790.31 78.64 789.99 76.4C786.897 76.4 784.123 77.04 781.67 78.32C779.217 79.6 776.603 80.56 773.83 81.2C772.337 81.52 770.737 81.68 769.03 81.68C767.43 81.68 765.83 82 764.23 82.64V82.96C764.23 83.0667 764.23 83.1733 764.23 83.28C764.337 83.3867 764.39 83.4933 764.39 83.6C764.39 84.1333 764.123 84.5067 763.59 84.72C762.63 84.08 761.937 83.3333 761.51 82.48C761.083 81.6267 760.763 80.8267 760.55 80.08C760.443 79.2267 760.337 78.48 760.23 77.84C760.23 77.2 760.177 76.72 760.07 76.4C757.297 76.4 754.683 76.6133 752.23 77.04C749.777 77.4667 747.11 77.7333 744.23 77.84C743.803 79.76 743.537 81.68 743.43 83.6C743.323 85.52 743.27 87.3867 743.27 89.2C743.27 91.0133 743.27 92.7733 743.27 94.48C743.377 96.1867 743.43 98.6933 743.43 102L743.11 104.08V103.44C742.79 104.293 742.63 105.307 742.63 106.48C742.95 113.52 743.27 119.973 743.59 125.84C743.697 128.293 743.803 130.747 743.91 133.2C744.123 135.653 744.283 137.947 744.39 140.08C744.497 142.107 744.55 143.867 744.55 145.36C744.657 146.853 744.71 147.813 744.71 148.24V149.68L745.51 151.12L744.39 154.16C744.177 154.16 744.017 154.053 743.91 153.84C743.91 153.627 743.857 153.52 743.75 153.52V153.84C743.75 154.267 744.123 154.533 744.87 154.64C745.723 154.747 746.47 154.8 747.11 154.8C750.203 154.8 753.03 154.533 755.59 154C758.257 153.36 760.923 152.827 763.59 152.4C762.63 147.813 761.99 142.8 761.67 137.36C761.35 131.813 761.19 126.16 761.19 120.4C761.19 118.48 761.243 116.133 761.35 113.36C761.563 110.587 762.043 107.973 762.79 105.52C763.537 102.96 764.657 100.773 766.15 98.96C767.75 97.1467 769.99 96.24 772.87 96.24C775.963 96.24 778.79 96.9867 781.35 98.48Z" fill="white"/>
</g>
<path d="M835.599 62.7406L1017.6 106.833L833.618 162.689L835.599 62.7406Z" fill="#BFAAAA"/>
<defs>
<filter id="filter0_d_1_46" x="41.4639" y="38.64" width="755.886" height="125.92" filterUnits="userSpaceOnUse" color-interpolation-filters="sRGB">
<feFlood flood-opacity="0" result="BackgroundImageFix"/>
<feColorMatrix in="SourceAlpha" type="matrix" values="0 0 0 0 0 0 0 0 0 0 0 0 0 0 0 0 0 0 127 0" result="hardAlpha"/>
<feOffset dy="4"/>
<feGaussianBlur stdDeviation="2"/>
<feComposite in2="hardAlpha" operator="out"/>
<feColorMatrix type="matrix" values="0 0 0 0 0 0 0 0 0 0 0 0 0 0 0 0 0 0 0.25 0"/>
<feBlend mode="normal" in2="BackgroundImageFix" result="effect1_dropShadow_1_46"/>
<feBlend mode="normal" in="SourceGraphic" in2="effect1_dropShadow_1_46" result="shape"/>
</filter>
</defs>
</svg>
